<svg width="116" height="111" viewBox="0 0 116 111" fill="none" xmlns="http://www.w3.org/2000/svg">
<g clip-path="url(#clip0)">
<path d="M93.8703 66.7869H86.8031C85.7338 66.7503 84.6704 66.9607 83.6957 67.4016C82.8224 67.6862 82.0178 68.1489 81.3327 68.7604V57.5339H78.4734V92.2702H81.4622V76.2771C81.4843 74.4791 82.1947 72.7578 83.4475 71.4673C84.7077 70.2226 86.4018 69.5151 88.1734 69.4937H92.4029C93.2787 69.4956 94.1453 69.671 94.9528 70.0097C95.7603 70.3485 96.4925 70.8439 97.1073 71.4673C97.7381 72.0993 98.2382 72.8494 98.5788 73.6747C98.9195 74.5 99.094 75.3843 99.0926 76.2771V92.1839H102.081V74.929C102.093 73.8433 101.878 72.7671 101.449 71.7696C101.019 70.7722 100.386 69.8757 99.5889 69.1379C98.8639 68.3542 97.9767 67.7379 96.9891 67.3319C96.0015 66.9258 94.9372 66.7399 93.8703 66.7869Z" fill="#25303E"/>
<path d="M59.6778 75.5437L69.6906 93.0682L59.6778 110.604H39.7708L29.7687 93.0682L39.7708 75.5437H59.6778Z" fill="#FFB000"/>
<path d="M59.6778 33.2369L69.6906 50.7614L59.6778 68.2967H39.7708L29.7687 50.7614L39.7708 33.2369H59.6778Z" fill="#64BA00"/>
<path d="M24.4387 57.4153L32.5957 71.9094L24.4387 86.4251H8.15701L0 71.9094L8.15701 57.4153H24.4387Z" fill="#F96E10"/>
<path d="M103.009 0.603516L115.957 23.5525L103.009 46.5339H76.9845L64.0369 23.5525L76.9845 0.603516H103.009Z" fill="#0298EC"/>
</g>
<defs>
<clipPath id="clip0">
<rect width="116" height="110" fill="white" transform="translate(0 0.603516)"/>
</clipPath>
</defs>
</svg>
